PathFileType	4	(X/Y/Z)	Patient4_TMGait_0pt4_03_right_31.trc.trc
DataRate	CameraRate	NumFrames	NumMarkers	Units	OrigDataRate	OrigDataStartFrame	OrigNumFrames
75.675675675676	75.675675675676	4	33	mm	75.675675675676	1	       141
Frame#	Time	Sacral			L.Shoulder			Chest			R.Shoulder			Neck			R.ASIS			L.ASIS			R.Thigh.Superior			R.Thigh.Lateral			R.Thigh.Inferior			R.Patella			L.Thigh.Superior			L.Thigh.Lateral			L.Thigh.Inferior			L.Patella			L.Shank.Superior			L.Shank.Lateral			L.Shank.Inferior			R.Shank.Superior			R.Shank.Lateral			R.Shank.Inferior			R.Heel			R.Midfoot.Superior			R.Midfoot.Lateral			R.Toe			L.Heel			L.Midfoot.Lateral			L.Midfoot.Superior			L.Toe			L.Elbow			L.Wrist			R.Elbow			R.Wrist			
		X1	Y1	Z1	X2	Y2	Z2	X3	Y3	Z3	X4	Y4	Z4	X5	Y5	Z5	X6	Y6	Z6	X7	Y7	Z7	X8	Y8	Z8	X9	Y9	Z9	X10	Y10	Z10	X11	Y11	Z11	X12	Y12	Z12	X13	Y13	Z13	X14	Y14	Z14	X15	Y15	Z15	X16	Y16	Z16	X17	Y17	Z17	X18	Y18	Z18	X19	Y19	Z19	X20	Y20	Z20	X21	Y21	Z21	X22	Y22	Z22	X23	Y23	Z23	X24	Y24	Z24	X25	Y25	Z25	X26	Y26	Z26	X27	Y27	Z27	X28	Y28	Z28	X29	Y29	Z29	X30	Y30	Z30	X31	Y31	Z31	X32	Y32	Z32	X33	Y33	Z33	

1	40.230000000000	847.399735271159	1006.610284238617	410.227433638484	1018.266756466217	1429.570786322848	206.144637506740	1126.232635643871	1369.704050788946	367.283046780583	1046.749706796665	1447.667871787213	541.330051524866	1007.281266262335	1498.275426153993	360.587064422967	1080.010482695597	949.339228203397	521.640682841109	1060.100361306345	965.219878451354	248.350774091236	1163.120762271789	777.268159139081	492.870870096479	1124.993818752017	657.385697678720	572.792162947186	1212.657178807335	616.823516461110	493.143042820042	1234.194885379794	506.858738487246	517.865148943863	1110.999254767022	752.322191684096	274.443726091529	1020.089262460034	636.429867344943	218.650945134364	1105.072935912961	559.686181018408	278.689156488538	1104.412550517735	491.481183904164	289.047643326776	1079.195083623605	419.131648957989	280.788751387552	990.024721886318	303.746519334259	231.760636509846	1043.054634276897	193.329938726222	302.570098732026	1162.085153024295	428.721288731090	529.801788843224	1048.168877431370	383.258942806494	600.516633765277	1035.241703432111	273.073288862608	553.869449376854	837.127989722513	202.018094538341	544.390867366553	1010.918813067019	149.950754742601	572.147700751611	903.983472725357	142.959136923587	611.551267801669	1081.718781749959	38.290775756091	589.004212957297	917.105147613487	38.348967550784	350.079023903263	986.920139519775	35.066955098102	265.652880284608	1070.949338406248	96.087486814746	289.703877252511	1198.188159110777	45.746379594020	254.191306924568	1039.696796397220	1083.672747878399	73.317606752242	1222.597627468055	894.511335952178	46.568407313070	1022.037694877055	1101.421375258953	669.299949909496	1118.930324672829	857.717343337592	668.905679379721	
2	40.243214285714	846.628751601385	1007.162172205431	408.177802197588	1020.744291432005	1430.042702320279	205.770181853522	1126.541969371312	1369.839131834654	368.132788681485	1045.084838396427	1447.817062383584	541.203292368640	1007.948411792110	1498.644408587462	360.249714479329	1078.363335664903	950.113839115543	522.005834630250	1061.084671314728	965.698209505274	248.388510998400	1162.558006657404	779.278850614291	493.233919841563	1125.703995192319	659.424164267901	573.667149496514	1213.019523206342	619.131631728269	493.704480375119	1236.148223453406	510.757272145145	518.976219530955	1109.299655537194	751.663222980617	275.532165984210	1017.775488171787	636.730493516820	218.047282764348	1101.521108526697	559.058237824435	279.022581560231	1100.104534840499	490.970382070415	289.315356198424	1074.798957514943	418.815174436774	280.913198291115	985.478245644975	303.709592127771	231.610775651708	1037.858120208972	193.121763702579	302.603106969116	1167.423619885105	430.704601831191	531.313716248677	1056.147188914081	380.270806170316	602.270833249855	1048.542641442512	269.654960418996	555.927698952929	854.527685187676	189.281893650645	546.721250244919	1030.154365100935	145.966034580333	574.456949014024	924.018444402372	134.171494224081	614.348732117092	1106.042779535187	38.441970930104	592.095609532156	911.460360467658	38.363064144484	350.041831926189	981.326674382301	35.074334325661	265.631430388418	1065.397544043951	96.041279347034	289.743344152520	1192.661743762636	45.612999452681	254.190101184400	1043.422155180146	1085.462580934849	70.654026689954	1234.204855442026	905.367988749061	44.682370027034	1012.891418823436	1103.662514379278	671.295035496343	1100.695950628757	857.485173942061	677.274618670409	
3	40.256428571429	845.866108255169	1007.690401416353	406.184134633179	1023.215225960959	1430.466011681324	205.433186653252	1126.867324849470	1369.934548061196	368.999184234037	1043.474059971489	1447.948295175381	541.097484079107	1008.634900122358	1498.978865687573	359.936333183599	1076.717468927139	950.824443746443	522.402391377601	1062.019095167288	966.108821694538	248.470077717448	1161.910845129820	781.152726889830	493.646367731394	1126.204552477179	661.323581298549	574.573337447852	1213.174632975819	621.252007979057	494.336385700706	1237.835305061519	514.514670413163	520.094110865307	1107.616592699102	750.998166793433	276.606995456887	1015.496559441734	636.997705813900	217.487335265954	1098.016496156543	558.427480347487	279.359752052008	1095.853820710767	490.455140914977	289.585496581264	1070.456183154648	418.492014777124	281.041323821656	980.975035192525	303.667558367054	231.468572343958	1032.686447325044	192.906503475955	302.642256866848	1172.584015726420	432.580895591352	532.827352898993	1064.133541074985	377.128285855210	604.102940330671	1061.901293823461	266.158598865218	558.013259196189	872.199412664474	176.375478609902	549.182465189728	1049.558154688156	141.978016936935	576.771920532804	944.337910451493	125.317755386767	617.208698961970	1130.562145136880	38.743727772770	595.123857464740	905.854301024631	38.373334115515	350.006606662077	975.768073257583	35.077587900625	265.611980201369	1059.878767147028	95.993076895869	289.785255911045	1187.168234800076	45.477478246395	254.191765714077	1047.111335738612	1087.208923519666	68.037716092223	1245.618067248692	916.201663530157	42.863533801781	1003.783426482924	1105.914250278664	673.270622351430	1082.702922972206	857.395287621833	685.470050523147	
4	40.269642857143	845.131804469038	1008.175450224504	404.312779814371	1025.666089003547	1430.799348796732	205.179598092052	1127.228937245244	1369.955967024165	369.902114349977	1041.983912797861	1448.044960845414	541.043602662800	1009.360696489917	1499.248623849845	359.682324268675	1075.092936503793	951.414429907711	522.867065038650	1062.855975384997	966.388411494888	248.643788119095	1161.076716205616	782.723726436276	494.170738450116	1126.269039397325	662.943503384426	575.556086171123	1212.898335081004	622.988534424015	495.108502921802	1238.972016355547	517.979340007626	521.228029591538	1105.968982655254	750.322045609469	277.662262575383	1013.283034894163	637.205367489694	217.016391998285	1094.600746070196	557.791928107751	279.710468973802	1091.711618880553	489.931903765588	289.865040399154	1066.213352488235	418.157509107089	281.181978708910	976.553264193964	303.618825125540	231.345707066125	1027.570681683129	192.680530931086	302.693176011219	1177.353887168838	434.272870819794	534.351905894389	1072.087452387463	373.747576212990	606.063310710983	1075.317896778946	262.608134443707	560.131308970143	890.374552043761	163.308614051220	551.829622214004	1069.229131297627	138.090800154640	579.066251101898	965.152288134552	116.466133425200	620.126029141794	1155.351635940890	39.421115422666	597.988930497743	900.321890265300	38.378589861524	349.974009482740	970.276155099314	35.074394637471	265.596400658563	1054.424272977985	95.941929120180	289.831066070918	1181.737466449770	45.338301947416	254.198025884554	1050.726285442561	1088.865912327452	65.539532346552	1256.618889729471	926.942571036183	41.194160076938	994.804645543853	1108.175907614522	675.196803004665	1065.242428652623	857.560613278299	693.283869002504	
